# xmcd
#
# Track frame offsets:
#	150
#	12380
#	26265
#	40000
#	54222
#	66695
#	81017
#	94777
#	104320
#	117522
#	131622
#	142022
#	152560
#	163807
#	177352
#	191757
#
# Disc length: 2746 seconds
#
# Revision: 0
# Processed by: cddbd v1.5.2PL0 Copyright (c) Steve Scherf et al.
# Submitted via: audiograbber 1.83.01
#
DISCID=d80ab810
DTITLE=Willie Lewis - And Hisnegro Band 1941
DYEAR=1900
DGENRE=
TTITLE0=What Will I Do (Berlin) Rec. July 1941 Zürich , Switzerland
TTITLE1=Happy Feet (Ager-Yellen) Rec. 1941 In Zürich, Switzerland
TTITLE2=Baby Ain`t You Satisfied (Mason) Rec. July 1941 In Zürich, Switzerla
TTITLE3=Ti-Pi-Tin *  (Grever-Leveen) Rec. July 1941 In Zürich, Switzerland
TTITLE4=Les Bateliers De La Volga (Trad.) Rec. July In Zürich, Switzerland
TTITLE5=Bacon`s Blues (Bacon) Rec. July 1941 In Zürich, Switzerland
TTITLE6=Lover Come Back To Me (Romberg) Rec. July 1941 In Zürich, Switzerlan
TTITLE7=Roses Of Picardy (Haydn-Wood) Rec. July 1941 In Zürich, Switzerland
TTITLE8=I Ain`t Got Nobody * (Bacon) Rec. 1941 July 1941 In Zürich, Switzerl
TTITLE9=Swinging At ´chez Florence´ (Hellmann) Rec. July 1941 In Zürich, Swi
TTITLE10=Christmas Night In Harlem (Scott) Rec. August In Zürich, Switzerland
TTITLE11=Ol´ Man River (Kern) Rec. August 1941 In Zürich, Switzerland
TTITLE12=Christopher Columbus (Berry-Razaf) Rec. August 1941 In Zürich, Switz
TTITLE13=I´ve Found A New Baby (Williams) Rec. August 1941 In Zürich, Switzer
TTITLE14=After You`ve Gone (Creamer-Layton) ** Rec. August 1941 In Zürich, Sw
TTITLE15=Body And Soul (Green-Heyman) Rec. August 1941 In Zürich Switzerland
EXTD=
EXTT0=
EXTT1=
EXTT2=
EXTT3=
EXTT4=
EXTT5=
EXTT6=
EXTT7=
EXTT8=
EXTT9=
EXTT10=
EXTT11=
EXTT12=
EXTT13=
EXTT14=
EXTT15=ALL SONGS BY  Willie Lewis and His Negro Band  -  Turicaphon AG,Switzerland
EXTT15=\nLouis Bacon, Henry Mason, tp - Billy Burns, tb - Willie Lewis, as and voc*
EXTT15=Ernst Höllerhagen, cl, as  - Johny Russel,\nDenis Chappelet, ts - Alfred
EXTT15=Siegrist, p, Peter Angst, g - June Cole, b and voc** - Tommy Benford d;
PLAYORDER=
